<svg width="17" height="15" viewBox="0 0 17 15" fill="none" xmlns="http://www.w3.org/2000/svg">
<path fill-rule="evenodd" clip-rule="evenodd" d="M2.21875 0.53125C1.68832 0.53125 1.17961 0.741964 0.804536 1.11704C0.429464 1.49211 0.21875 2.00082 0.21875 2.53125V12.5312C0.21875 13.0617 0.429464 13.5704 0.804536 13.9455C1.17961 14.3205 1.68832 14.5312 2.21875 14.5312H14.2188C14.7492 14.5312 15.2579 14.3205 15.633 13.9455C16.008 13.5704 16.2188 13.0617 16.2188 12.5312V2.53125C16.2188 2.00082 16.008 1.49211 15.633 1.11704C15.2579 0.741964 14.7492 0.53125 14.2188 0.53125H2.21875ZM14.2188 12.5312H2.21875L6.21875 4.53125L9.21875 10.5312L11.2188 6.53125L14.2188 12.5312Z" fill="black"/>
</svg>
