<svg width="18" height="18" viewBox="0 0 18 18" fill="none" xmlns="http://www.w3.org/2000/svg">
<path d="M10.742 7.47667C10.1169 6.85176 9.26924 6.50071 8.38536 6.50071C7.50148 6.50071 6.65379 6.85176 6.02869 7.47667L2.69536 10.81C2.37699 11.1175 2.12305 11.4853 1.94836 11.892C1.77366 12.2987 1.68171 12.7361 1.67786 13.1787C1.67401 13.6213 1.75835 14.0602 1.92596 14.4698C2.09356 14.8795 2.34107 15.2517 2.65404 15.5647C2.96702 15.8776 3.33919 16.1251 3.74885 16.2927C4.1585 16.4603 4.59743 16.5447 5.04003 16.5408C5.48263 16.537 5.92003 16.445 6.32671 16.2703C6.73339 16.0956 7.10121 15.8417 7.4087 15.5233L8.32703 14.6058M7.69536 10.5233C8.32045 11.1482 9.16815 11.4993 10.052 11.4993C10.9359 11.4993 11.7836 11.1482 12.4087 10.5233L15.742 7.19C16.3492 6.56133 16.6852 5.71932 16.6776 4.84533C16.67 3.97134 16.3194 3.1353 15.7014 2.51727C15.0834 1.89925 14.2474 1.54868 13.3734 1.54109C12.4994 1.53349 11.6574 1.86947 11.0287 2.47667L10.112 3.39333" stroke="#001019" stroke-width="2" stroke-linecap="round" stroke-linejoin="round"/>
</svg>
